# xmcd
#
# Track frame offsets:
#	150
#	27992
#	64055
#	92005
#	127996
#	155628
#	192697
#	219381
#	246480
#	264726
#
# Disc length: 4065 seconds
#
# Revision: 1
# Processed by: cddbd v1.5.2PL0 Copyright (c) Steve Scherf et al.
# Submitted via: audiograbber 1.83.01
#
DISCID=950fdf0a
DTITLE=Mohsin HAMID (Jörg Pohl) - So wirst du stinkreich im boomenden Asien (1v
DTITLE=4)
DYEAR=2013
DGENRE=Hörbuch - Humor
TTITLE0=01
TTITLE1=02
TTITLE2=03
TTITLE3=04
TTITLE4=05
TTITLE5=06
TTITLE6=07
TTITLE7=08
TTITLE8=09
TTITLE9=10
EXTD=
EXTT0=
EXTT1=
EXTT2=
EXTT3=
EXTT4=
EXTT5=
EXTT6=
EXTT7=
EXTT8=
EXTT9=
PLAYORDER=
